<svg width="20" height="11" viewBox="0 0 20 11" fill="none" xmlns="http://www.w3.org/2000/svg">
<path fill-rule="evenodd" clip-rule="evenodd" d="M0.00071666 5.18616C-0.00940272 5.45366 0.0876436 5.72446 0.291856 5.92867L4.51947 10.1563C4.90861 10.5454 5.53953 10.5454 5.92867 10.1563C6.31781 9.76714 6.31781 9.13622 5.92867 8.74708L3.33132 6.14973H18.9474C19.5288 6.14973 20 5.70202 20 5.14973C20 4.59745 19.5288 4.14973 18.9474 4.14973H3.48L5.92867 1.70106C6.31781 1.31192 6.31781 0.680996 5.92867 0.291856C5.53953 -0.0972852 4.90861 -0.0972852 4.51947 0.291856L0.529574 4.28175C0.213163 4.45421 3.10336e-05 4.77833 3.10336e-05 5.14973C3.10336e-05 5.16193 0.000260873 5.17407 0.00071666 5.18616Z" fill="#848B9B"/>
</svg>
