<svg width="24" height="25" viewBox="0 0 24 25" fill="none" xmlns="http://www.w3.org/2000/svg">
<path fill-rule="evenodd" clip-rule="evenodd" d="M11.5 5.5C15.0899 5.5 18 8.41015 18 12C18 13.5247 17.475 14.9268 16.596 16.0353L18.5303 17.9697C18.8232 18.2626 18.8232 18.7374 18.5303 19.0303C18.2374 19.3232 17.7626 19.3232 17.4697 19.0303L15.5353 17.096C14.4268 17.975 13.0247 18.5 11.5 18.5C7.91015 18.5 5 15.5899 5 12C5 8.41015 7.91015 5.5 11.5 5.5ZM11.5 17C14.2614 17 16.5 14.7614 16.5 12C16.5 9.23858 14.2614 7 11.5 7C8.73858 7 6.5 9.23858 6.5 12C6.5 14.7614 8.73858 17 11.5 17Z" fill="#7D63EC"/>
<path d="M10.1639 9.6997C9.89767 9.43343 9.46597 9.43343 9.1997 9.6997C8.93343 9.96597 8.93343 10.3977 9.1997 10.6639L10.5358 12L9.1997 13.3361C8.93343 13.6023 8.93343 14.034 9.1997 14.3003C9.46597 14.5666 9.89767 14.5666 10.1639 14.3003L11.5 12.9642L12.8361 14.3003C13.1023 14.5666 13.534 14.5666 13.8003 14.3003C14.0666 14.034 14.0666 13.6023 13.8003 13.3361L12.4642 12L13.8003 10.6639C14.0666 10.3977 14.0666 9.96597 13.8003 9.6997C13.534 9.43343 13.1023 9.43343 12.8361 9.6997L11.5 11.0358L10.1639 9.6997Z" fill="#7D62EC"/>
</svg>
