<svg width="18" height="18" viewBox="0 0 18 18" fill="none" xmlns="http://www.w3.org/2000/svg">
<path d="M16 9C16 12.866 12.866 16 9 16C5.13401 16 2 12.866 2 9C2 5.13401 5.13401 2 9 2C12.866 2 16 5.13401 16 9Z" fill="#717E84"/>
<path d="M7.88 11.1V15.86C7.88 15.9373 7.94268 16 8.02 16H9.98C10.0573 16 10.12 15.9373 10.12 15.86V11.1C10.12 11.0227 10.1827 10.96 10.26 10.96H11.66C11.7373 10.96 11.8 10.8973 11.8 10.82V9.14C11.8 9.06268 11.7373 9 11.66 9H10.26C10.1827 9 10.12 8.93741 10.12 8.86009V7.6C10.12 7.04 10.82 6.76 11.1 6.76H11.94C12.0173 6.76 12.08 6.69732 12.08 6.62V4.94C12.08 4.86268 12.0173 4.8 11.94 4.8H10.12C8.776 4.8 7.88 6.2 7.88 7.04V8.86C7.88 8.93732 7.81732 9 7.74 9H6.34C6.26268 9 6.2 9.06268 6.2 9.14V10.82C6.2 10.8973 6.26268 10.96 6.34 10.96H7.74C7.81732 10.96 7.88 11.0227 7.88 11.1Z" fill="white"/>
</svg>
