<svg width="20" height="20" viewBox="0 0 20 20" fill="none" xmlns="http://www.w3.org/2000/svg">
<path fill-rule="evenodd" clip-rule="evenodd" d="M4.375 4.95106C4.375 4.17451 5.00776 3.54175 5.78431 3.54175H10.901C11.5743 3.54175 12.1546 4.01806 12.283 4.67419L12.2847 4.68279L12.3798 5.20841H15.049C15.8256 5.20841 16.4583 5.84118 16.4583 6.61773V11.7158C16.4583 12.4923 15.8256 13.1251 15.049 13.1251H11.4029C10.7479 13.1251 10.1708 12.6789 10.0281 12.0272L9.85529 11.4584H5.62502L5.62503 16.6667C5.62503 17.0119 5.34521 17.2917 5.00003 17.2917C4.65485 17.2917 4.37503 17.0119 4.37503 16.6667L4.375 4.95106ZM5.62501 10.2084H10.782L11.2419 11.7226L11.2482 11.7551C11.2607 11.8205 11.3174 11.8751 11.4029 11.8751H15.049C15.1352 11.8751 15.2083 11.802 15.2083 11.7158V6.61773C15.2083 6.53153 15.1352 6.45841 15.049 6.45841H11.3359L11.0557 4.91168C11.0418 4.84731 10.9796 4.79175 10.901 4.79175H5.78431C5.69812 4.79175 5.625 4.86487 5.625 4.95106" fill="#656E77"/>
</svg>
