<svg width="20" height="20" viewBox="0 0 20 20" fill="none" xmlns="http://www.w3.org/2000/svg">
<path fill-rule="evenodd" clip-rule="evenodd" d="M8.33335 7.91658C9.25383 7.91658 10 7.17039 10 6.24992C10 5.32944 9.25383 4.58325 8.33335 4.58325C7.41288 4.58325 6.66668 5.32944 6.66668 6.24992C6.66668 7.17039 7.41288 7.91658 8.33335 7.91658ZM8.33335 9.16658C9.94418 9.16658 11.25 7.86075 11.25 6.24992C11.25 4.63909 9.94418 3.33325 8.33335 3.33325C6.72252 3.33325 5.41668 4.63909 5.41668 6.24992C5.41668 7.86075 6.72252 9.16658 8.33335 9.16658Z" fill="#656E77"/>
<path fill-rule="evenodd" clip-rule="evenodd" d="M8.33335 11.4583C6.20539 11.4583 4.3217 12.6903 4.00415 15.2859C4.00067 15.3143 4.00768 15.3384 4.03192 15.3636C4.05938 15.3921 4.10657 15.4166 4.16668 15.4166H12.5C12.5601 15.4166 12.6073 15.3921 12.6348 15.3636C12.659 15.3384 12.666 15.3143 12.6626 15.2859C12.345 12.6903 10.4613 11.4583 8.33335 11.4583ZM2.7634 15.1341C3.13775 12.0742 5.42247 10.2083 8.33335 10.2083C11.2442 10.2083 13.5289 12.0742 13.9033 15.1341C14.011 16.0147 13.2819 16.6666 12.5 16.6666H4.16668C3.38482 16.6666 2.65566 16.0147 2.7634 15.1341Z" fill="#656E77"/>
<path d="M15.8334 8.74992C15.8334 9.90051 14.9006 10.8333 13.75 10.8333C12.5994 10.8333 11.6667 9.90051 11.6667 8.74992C11.6667 7.59933 12.5994 6.66659 13.75 6.66659C14.9006 6.66659 15.8334 7.59933 15.8334 8.74992Z" fill="#656E77"/>
<path d="M14.2637 16.6666C14.6129 16.2444 14.8099 15.6831 14.7303 15.0329C14.6146 14.087 14.3357 13.2387 13.9248 12.5044C14.9691 12.5576 15.902 13.0855 16.5527 13.8984C16.9845 14.4378 17.2922 15.1027 17.4257 15.8376C17.508 16.2904 17.1268 16.6666 16.6666 16.6666H14.2637Z" fill="#656E77"/>
</svg>
