<svg width="24" height="24" viewBox="0 0 24 24" fill="none" xmlns="http://www.w3.org/2000/svg">
<path fill-rule="evenodd" clip-rule="evenodd" d="M12 8.49987C12.4142 8.49987 12.75 8.83566 12.75 9.24987V11.5985L14.792 12.9598C15.1366 13.1896 15.2298 13.6552 15 13.9999C14.7702 14.3445 14.3046 14.4377 13.9599 14.2079L11.584 12.6239C11.3753 12.4848 11.25 12.2506 11.25 11.9999V9.24987C11.25 8.83566 11.5858 8.49987 12 8.49987Z" fill="#656E77"/>
<path d="M6.71825 17.3091C8.55115 19.1741 11.3083 20.0256 14.0144 19.3005C18.0154 18.2284 20.3897 14.1159 19.3177 10.1149C18.2456 6.11392 14.1331 3.73955 10.1321 4.81162C7.50357 5.51592 5.57712 7.53248 4.86871 9.96758L6.32012 10.3496C6.89522 8.4175 8.43036 6.8205 10.5203 6.26051C13.7211 5.40285 17.0111 7.30235 17.8688 10.5031C18.7264 13.7039 16.8269 16.994 13.6261 17.8516C11.4229 18.442 9.17734 17.7259 7.71196 16.1784L6.71825 17.3091Z" fill="#656E77"/>
<path d="M9.58905 8.58059L9.97728 10.0295L4.66469 11.453L3.24118 6.14039L4.69007 5.75216L5.72535 9.61586L9.58905 8.58059Z" fill="#656E77"/>
</svg>
