<svg width="18" height="18" viewBox="0 0 18 18" fill="none" xmlns="http://www.w3.org/2000/svg">
<rect width="18" height="18" rx="2" fill="#717E84"/>
<path d="M6.14732 14H4V6.85714H6.14732V14ZM11.9335 14V10.5179C11.9335 9.68798 11.925 8.64296 10.7875 8.64296C9.63328 8.64296 9.35973 9.49595 9.35973 10.4287V14H7.43641V6.84678H9.35973V7.82254H9.3908C9.68712 7.26052 10.4212 6.84688 11.5014 6.84688C13.7477 6.84688 14 8.1478 14 10.0706V14H11.9335Z" fill="#F2F2F2"/>
<path d="M6.14732 5.07143C6.14732 5.66316 5.66789 6.14286 5.07649 6.14286C4.48508 6.14286 4.00566 5.66316 4.00566 5.07143C4.00566 4.47969 4.48508 4 5.07649 4C5.66789 4 6.14732 4.47969 6.14732 5.07143Z" fill="#F2F2F2"/>
</svg>
