<svg width="18" height="18" viewBox="0 0 18 18" fill="none" xmlns="http://www.w3.org/2000/svg">
<path d="M8 1C8 0.447715 8.44772 0 9 0C9.55228 0 10 0.447715 10 1V3C10 3.55228 9.55228 4 9 4C8.44772 4 8 3.55228 8 3V1Z" fill="#4F5456"/>
<path d="M17 8C17.5523 8 18 8.44772 18 9C18 9.55228 17.5523 10 17 10H15C14.4477 10 14 9.55228 14 9C14 8.44772 14.4477 8 15 8H17Z" fill="#4F5456"/>
<path d="M8 15C8 14.4477 8.44772 14 9 14C9.55228 14 10 14.4477 10 15V17C10 17.5523 9.55228 18 9 18C8.44772 18 8 17.5523 8 17V15Z" fill="#4F5456"/>
<path d="M3 8C3.55228 8 4 8.44772 4 9C4 9.55228 3.55228 10 3 10H1C0.447715 10 -2.41411e-08 9.55228 0 9C2.41411e-08 8.44772 0.447715 8 1 8H3Z" fill="#4F5456"/>
<path d="M4.13397 2.5718C3.85783 2.0935 4.02171 1.48191 4.5 1.20577C4.97829 0.929629 5.58988 1.0935 5.86602 1.5718L6.86602 3.30385C7.14217 3.78214 6.97829 4.39373 6.5 4.66987C6.02171 4.94602 5.41012 4.78214 5.13397 4.30385L4.13397 2.5718Z" fill="#4F5456"/>
<path d="M15.4282 4.13397C15.9065 3.85783 16.5181 4.02171 16.7942 4.5C17.0704 4.97829 16.9065 5.58988 16.4282 5.86603L14.6962 6.86603C14.2179 7.14217 13.6063 6.97829 13.3301 6.5C13.054 6.02171 13.2179 5.41012 13.6962 5.13397L15.4282 4.13397Z" fill="#4F5456"/>
<path d="M11.134 14.6962C10.8578 14.2179 11.0217 13.6063 11.5 13.3301C11.9783 13.054 12.5899 13.2179 12.866 13.6962L13.866 15.4282C14.1422 15.9065 13.9783 16.5181 13.5 16.7942C13.0217 17.0704 12.4101 16.9065 12.134 16.4282L11.134 14.6962Z" fill="#4F5456"/>
<path d="M3.30385 11.134C3.78214 10.8578 4.39373 11.0217 4.66987 11.5C4.94601 11.9783 4.78214 12.5899 4.30385 12.866L2.5718 13.866C2.0935 14.1422 1.48191 13.9783 1.20577 13.5C0.929629 13.0217 1.0935 12.4101 1.5718 12.134L3.30385 11.134Z" fill="#4F5456"/>
<path d="M12.134 1.57218C12.4101 1.09389 13.0217 0.930012 13.5 1.20615C13.9783 1.4823 14.1422 2.09389 13.866 2.57218L12.866 4.30423C12.5899 4.78252 11.9783 4.9464 11.5 4.67026C11.0217 4.39411 10.8578 3.78252 11.134 3.30423L12.134 1.57218Z" fill="#4F5456"/>
<path d="M16.4282 12.1344C16.9065 12.4105 17.0704 13.0221 16.7942 13.5004C16.5181 13.9787 15.9065 14.1426 15.4282 13.8664L13.6962 12.8664C13.2179 12.5903 13.054 11.9787 13.3301 11.5004C13.6063 11.0221 14.2179 10.8582 14.6962 11.1344L16.4282 12.1344Z" fill="#4F5456"/>
<path d="M5.13397 13.6965C5.41012 13.2182 6.02171 13.0544 6.5 13.3305C6.97829 13.6067 7.14217 14.2182 6.86603 14.6965L5.86603 16.4286C5.58988 16.9069 4.97829 17.0708 4.5 16.7946C4.02171 16.5185 3.85783 15.9069 4.13397 15.4286L5.13397 13.6965Z" fill="#4F5456"/>
<path d="M4.30385 5.13436C4.78214 5.4105 4.94602 6.02209 4.66987 6.50038C4.39373 6.97868 3.78214 7.14255 3.30385 6.86641L1.5718 5.86641C1.0935 5.59027 0.929629 4.97868 1.20577 4.50038C1.48191 4.02209 2.0935 3.85822 2.5718 4.13436L4.30385 5.13436Z" fill="#4F5456"/>
</svg>
