<svg width="20" height="20" viewBox="0 0 20 20" fill="none" xmlns="http://www.w3.org/2000/svg">
<path fill-rule="evenodd" clip-rule="evenodd" d="M10 4.24487C7.71666 4.24487 5.88334 6.02661 5.88334 8.4506C5.88334 9.53799 6.54502 10.7178 7.49178 12.0436C8.16603 12.9877 8.91834 13.976 9.50381 14.7304C9.68879 14.9687 9.85679 15.1832 10 15.3651C10.1432 15.1832 10.3112 14.9687 10.4962 14.7304C11.0817 13.976 11.834 12.9877 12.5082 12.0436C13.455 10.7178 14.1167 9.53799 14.1167 8.4506C14.1167 6.02661 12.2834 4.24487 10 4.24487ZM10 16.4194L9.49787 16.841L9.47814 16.8164L9.42207 16.7464C9.37324 16.6853 9.30212 16.5961 9.2126 16.4831C9.03358 16.2573 8.78078 15.9364 8.4852 15.5556C7.89477 14.7949 7.13042 13.791 6.44157 12.8264C5.50905 11.5205 4.58334 10.0195 4.58334 8.4506C4.58334 5.27329 7.01824 2.91675 10 2.91675C12.9818 2.91675 15.4167 5.27329 15.4167 8.4506C15.4167 10.0195 14.491 11.5205 13.5584 12.8264C12.8696 13.791 12.1052 14.7949 11.5148 15.5556C11.2192 15.9364 10.9664 16.2573 10.7874 16.4831C10.6979 16.5961 10.6268 16.6853 10.578 16.7464L10.5219 16.8164L10.5025 16.8406L10 16.4194ZM10 16.4194L10.5025 16.8406C10.379 16.994 10.1944 17.0834 10 17.0834C9.80559 17.0834 9.62133 16.9945 9.49787 16.841L10 16.4194Z" fill="#656E77"/>
<path fill-rule="evenodd" clip-rule="evenodd" d="M10 9.55737C10.7479 9.55737 11.3542 8.96275 11.3542 8.22925C11.3542 7.49575 10.7479 6.90112 10 6.90112C9.25212 6.90112 8.64584 7.49575 8.64584 8.22925C8.64584 8.96275 9.25212 9.55737 10 9.55737ZM10 10.8855C11.4958 10.8855 12.7083 9.69625 12.7083 8.22925C12.7083 6.76224 11.4958 5.573 10 5.573C8.50424 5.573 7.29168 6.76224 7.29168 8.22925C7.29168 9.69625 8.50424 10.8855 10 10.8855Z" fill="#656E77"/>
</svg>
