<?xml version="1.0" encoding="UTF-8" standalone="no"?>
<!-- Created with Inkscape (http://www.inkscape.org/) -->

<svg version="1.1" id="svg1" width="71" height="27" viewBox="0 0 711 270" xmlns="http://www.w3.org/2000/svg">
  <defs id="defs1" />
  <g style="fill:#5c4aed;fill-opacity:1" transform="translate(-23.033733,-34.015818)">
    <path d="M 488.2,83.8 C 487.54,83.14 487,81.115 487,79.3 V 76 h -7.87756 c -8.76547,0 -10.48432,-0.983381 -9.9447,-5.689528 L 469.5,67.5 478.25,67.211067 487,66.922134 V 63.161067 C 487,57.733953 488.25084,57 497.5,57 c 9.26159,0 10.5,0.731252 10.5,6.2 V 67 h 22.5 22.5 v -3.8 c 0,-5.468748 1.23841,-6.2 10.5,-6.2 9.24916,0 10.5,0.733953 10.5,6.161067 v 3.761067 l 8.75,0.288933 8.75,0.288933 0.32226,2.810472 C 592.36188,75.016619 590.64303,76 581.87756,76 H 574 v 3.3 C 574,84.234692 572.59022,85 563.5,85 554.40978,85 553,84.234692 553,79.3 V 76 H 530.5 508 v 3.3 c 0,1.815 -0.54,3.84 -1.2,4.5 -1.61252,1.61252 -16.98748,1.61252 -18.6,0 z"/>
    <path d="m 711.54288,88.047384 c -1.68903,-1.866365 -1.6892,-2.407475 -0.004,-12.25 C 712.50909,70.133823 713.97928,64.7125 714.8063,63.75 715.99458,62.367063 717.91352,62 723.95499,62 732.43601,62 734,62.836423 734,67.37207 c 0,4.483194 -3.05475,19.953293 -4.22132,21.37793 -0.65814,0.80373 -3.78065,1.25 -8.74614,1.25 -6.39011,0 -8.02746,-0.336906 -9.48966,-1.952616 z"/>
    <path d="m 660.65777,87.75 c -0.76359,-1.2375 -2.17213,-6.870851 -3.1301,-12.518559 -1.38592,-8.170738 -1.49058,-10.57121 -0.51227,-11.75 1.6549,-1.994026 17.21371,-2.115233 18.84734,-0.146825 1.32154,1.592349 4.13685,15.689285 4.13709,20.715384 2.5e-4,5.164734 -1.34286,5.95 -10.17678,5.95 -6.98695,0 -7.91797,-0.228557 -9.16528,-2.25 z"/>
    <path d="m 612.3291,96.379524 c -1.6568,-2.528606 -1.62575,-2.800308 0.88575,-7.75 3.49616,-6.89029 6.2965,-14.862117 7.77364,-22.129524 1.76748,-8.69582 2.78702,-9.5 12.04405,-9.5 9.32143,0 10.52198,0.937665 9.6206,7.513939 L 642.03826,69 h 5.28087 C 652.99538,69 655,70.174451 655,73.5 c 0,3.557259 -1.99333,4.5 -9.51479,4.5 -7.03907,0 -7.13145,0.03459 -8.68066,3.25 -2.5654,5.324559 -9.72483,12.67591 -14.89796,15.297333 -6.11422,3.098311 -7.45281,3.074858 -9.57749,-0.167809 z"/>
    <path d="M 481.66482,106 C 490.66514,106 492,105.16897 492,99.565741 V 97 h 38.5 38.5 v 3.37756 c 0,5.01056 1.5774,5.74338 11.65111,5.41282 L 589.5,105.5 l 0.29568,-7.3425 c 0.18332,-4.552441 -0.1482,-7.877332 -0.87245,-8.75 C 587.94394,88.227531 578.51202,88 530.57756,88 c -43.1381,0 -57.47221,0.29465 -58.37756,1.2 -1.58053,1.580533 -1.58053,14.01947 0,15.6 0.73974,0.73974 4.36996,1.2 9.46482,1.2 z"/>
    <path d="m 479.2,137.8 c -1.66924,-1.66924 -1.66924,-27.93076 0,-29.6 1.72958,-1.72958 100.87042,-1.72958 102.6,0 0.81569,0.81569 1.2,5.55556 1.2,14.8 0,9.24444 -0.38431,13.98431 -1.2,14.8 -1.72958,1.72958 -100.87042,1.72958 -102.6,0 z M 562,123 v -7 H 530.5 499 v 7 7 h 31.5 31.5 z"/>
    <path d="m 334.2,142.8 c -0.89139,-0.89139 -1.2,-11.01 -1.2,-39.34501 0,-35.75885 0.11501,-38.249101 1.8386,-39.808925 1.67386,-1.514818 6.57966,-1.64071 54.75,-1.404988 L 442.5,62.5 l 0.26153,39.16704 c 0.23118,34.62179 0.0778,39.35074 -1.32143,40.75 C 440.29792,143.55923 437.90958,144 432.86283,144 421.01885,144 422,147.39024 422,106.46482 V 71 h -34 -34 v 35.3 c 0,26.12222 -0.31199,35.61199 -1.2,36.5 -0.7358,0.7358 -4.33333,1.2 -9.3,1.2 -4.96667,0 -8.5642,-0.4642 -9.3,-1.2 z"/>
    <path d="m 632.5,178.03676 c -1.1,-0.46006 -3.575,-2.4802 -5.5,-4.4892 l -3.5,-3.65272 -0.32947,-12.94742 L 622.84106,144 h -3.26554 c -5.068,0 -8.37581,-4.79971 -5.37552,-7.8 0.66,-0.66 2.91,-1.2 5,-1.2 h 3.8 v -13 -13 h -3.34501 c -5.24676,0 -8.65165,-5.09803 -5.276,-7.89957 0.95693,-0.79418 7.30783,-1.06121 20.75,-0.87245 L 654.5,100.5 l 0.32226,2.81047 C 655.28789,107.37134 653.44305,109 648.37756,109 H 644 v 13 13 h 4.3 c 4.7437,0 6.7,1.31394 6.7,4.5 0,3.19086 -1.95786,4.5 -6.72988,4.5 h -4.32987 l 0.27987,12.75 0.27988,12.75 3.98732,0.32451 c 2.19303,0.17849 4.55553,0.79609 5.25,1.37245 1.59858,1.3267 1.63375,5.03197 0.0627,6.60304 -1.38238,1.38238 -18.1161,1.56838 -21.3,0.23676 z"/>
    <path d="m 474.2,177.8 c -1.67751,-1.67751 -1.67751,-30.92249 0,-32.6 1.7316,-1.7316 110.8684,-1.7316 112.6,0 0.82737,0.82737 1.2,5.88889 1.2,16.3 0,10.41111 -0.37263,15.47263 -1.2,16.3 -1.7316,1.7316 -110.8684,1.7316 -112.6,0 z M 567,161.5 V 153 H 530.5 494 v 8.5 8.5 h 36.5 36.5 z"/>
    <path d="m 659.2,179.8 c -1.72501,-1.72501 -1.72501,-83.874992 0,-85.6 0.80325,-0.803252 5.26667,-1.2 13.5,-1.2 H 685 V 76.2 c 0,-11.733333 0.3619,-17.161905 1.2,-18 1.61252,-1.61252 16.98748,-1.61252 18.6,0 0.8381,0.838095 1.2,6.266667 1.2,18 V 93 h 12.3 c 8.23333,0 12.69675,0.396748 13.5,1.2 1.61966,1.619659 1.6934,62.95489 0.0834,69.34888 -2.13361,8.47334 -12.56671,17.37251 -20.43337,17.42916 -5.19038,0.0374 -7.12771,-4.13776 -3.99521,-8.61004 2.36285,-3.37343 4.51503,-10.5549 4.53066,-15.118 L 712,153 H 695.5 679 v 12.8 c 0,8.62222 -0.39167,13.19167 -1.2,14 -0.7358,0.7358 -4.33333,1.2 -9.3,1.2 -4.96667,0 -8.5642,-0.4642 -9.3,-1.2 z M 712,135.5 V 127 H 695.5 679 v 8.5 8.5 h 16.5 16.5 z m 0,-25 V 102 H 695.5 679 v 7.96107 7.96106 l 8.75,0.3333 c 4.8125,0.18332 12.2375,0.42584 16.5,0.53893 L 712,119 Z"/>
    <path d="m 328.25,179.89151 c -0.6875,-0.71033 -1.25,-1.79807 -1.25,-2.4172 0,-1.70639 3.92802,-4.9557 9.5,-7.85854 14.31514,-7.45778 21.88508,-13.3593 28.95659,-22.57458 5.11974,-6.67181 6.74085,-9.72192 9.46493,-17.80821 C 376.77155,123.74123 377,120.6893 377,101.4658 c 0,-12.975207 0.41327,-22.369478 1.03518,-23.531541 0.89527,-1.67282 2.15228,-1.934259 9.3,-1.934259 5.09486,0 8.72508,0.460258 9.46482,1.2 2.50936,2.509359 1.39566,49.21279 -1.38428,58.05 -0.45356,1.44184 0.0758,1.75 3.00628,1.75 3.72905,0 5.83243,1.58719 32.578,24.58288 13.06692,11.23487 14.69579,13.08954 13.36004,15.21206 -0.882,1.40152 -2.92333,1.74622 -11.46653,1.93625 L 422.5,178.96238 410.52133,168.73119 c -6.58828,-5.62715 -13.96648,-12.0693 -16.39601,-14.31588 l -4.41734,-4.0847 -9.10399,9.18306 c -7.2129,7.27554 -10.6619,9.92863 -16.60399,12.77232 -13.21078,6.32225 -32.93145,10.51767 -35.75,7.60552 z"/>
    <path d="m 90.464278,195.62854 c -1.357292,-2.07149 -1.516872,-8.27025 -1.273052,-49.45071 0.180277,-30.44834 0.640891,-47.44421 1.303763,-48.10663 1.575974,-1.57488 132.134231,-1.60198 134.030981,-0.0278 1.22213,1.01428 1.44402,8.60157 1.44402,49.37598 0,36.1381 -0.29988,48.47744 -1.2,49.37756 -0.77492,0.77492 -4.77778,1.2 -11.3,1.2 -6.52222,0 -10.52508,-0.42508 -11.3,-1.2 -0.89588,-0.89588 -1.2,-12.02627 -1.2,-43.91821 0,-23.49502 -0.27314,-43.43002 -0.60699,-44.3 -0.54028,-1.40795 -5.26379,-1.58179 -42.97941,-1.58179 h -42.37242 l -0.008,43.65723 c -0.007,39.34719 -0.17253,43.83915 -1.67558,45.5 -1.40451,1.55209 -3.2169,1.84277 -11.48953,1.84277 -9.227707,0 -9.915857,-0.14329 -11.373782,-2.36837 z"/>
    <path d="m 84.187046,243.39408 c -2.598971,-1.82039 -2.761059,-4.53602 -0.395319,-6.62319 0.9625,-0.84917 5.110565,-3.22396 9.217924,-5.27731 12.303859,-6.15094 21.053489,-12.38151 30.088239,-21.42567 12.19007,-12.20276 18.67387,-24.09943 20.86788,-38.28902 0.53355,-3.45072 1.09731,-17.21037 1.25279,-30.57699 0.23597,-20.28552 0.53543,-24.53166 1.81154,-25.68652 1.0476,-0.94807 4.63742,-1.44628 11.40453,-1.58278 8.50248,-0.17149 10.01218,0.0447 10.85724,1.55474 0.5885,1.05159 0.91666,13.01909 0.81949,29.88572 -0.15366,26.67443 -0.72283,33.33361 -3.66514,42.88179 -0.45861,1.48828 0.13743,1.75 3.98539,1.75 4.3175,0 5.12773,0.51506 17.69693,11.25 7.24475,6.1875 14.60616,12.375 16.35868,13.75 8.74671,6.86251 24.55451,21.29318 24.55451,22.41538 0,0.70106 -0.82293,2.01939 -1.82874,2.92963 -1.48451,1.34347 -4.05331,1.65499 -13.64701,1.65499 h -11.81827 l -4.60299,-3.68786 c -2.53164,-2.02833 -5.32406,-4.39083 -6.20536,-5.25 -2.99645,-2.92122 -31.0368,-26.56067 -31.8589,-26.8587 -0.44994,-0.1631 -1.77097,1.24528 -2.93564,3.12975 -3.3642,5.4434 -16.2206,17.05322 -24.00634,21.67864 -10.65378,6.32929 -22.41623,10.0112 -42.701434,13.36651 -1.900313,0.31432 -3.936892,-0.0694 -5.25,-0.98911 z"/>
  </g>
  <g style="fill:#5c4aed;fill-opacity:1">
    <path d="m 588.44105,234.77906 c -0.27765,-0.72354 -0.38556,-15.03589 -0.2398,-31.8052 l 0.26502,-30.48967 h 4.5 4.5 l 0.27988,12.75 0.27987,12.75 h 4.79581 c 6.15337,0 7.68099,-1.6221 13.18465,-14 2.32323,-5.225 4.66969,-10.0625 5.21436,-10.75 1.1597,-1.46379 9.35237,-1.695 10.22166,-0.28847 0.84551,1.36808 -8.25076,21.01308 -11.20134,24.19126 -2.3971,2.58202 -2.40902,2.66986 -0.44664,3.2927 3.16074,1.00318 8.99578,8.09255 9.66684,11.74485 0.33445,1.82031 0.47238,7.80966 0.3065,13.30966 l -0.30159,10 h -5 -5 l -0.28132,-11.70206 c -0.27072,-11.26109 -0.37943,-11.77923 -2.88486,-13.75 -2.08654,-1.64127 -4.06048,-2.04794 -9.94046,-2.04794 h -7.33692 l -0.27822,13.75 -0.27822,13.75 -4.7602,0.30521 c -3.24319,0.20794 -4.92108,-0.11404 -5.26502,-1.01034 z"/>
    <path d="m 529.33541,170.90802 c -1.99246,0.0406 -4.01195,1.06279 -5.7793,3.15234 -1.72986,2.04525 -1.89558,3.09777 -2.10742,3.78906 -0.11289,0.36841 -1.83242,11.16471 -3.48242,23.96875 -1.65,12.80404 -3,25.72924 -3,28.72266 v 5.44336 h 4.44141 c 2.44253,0 4.73574,-0.47615 5.0957,-1.05859 0.63545,-1.02818 3.49081,-22.74931 4.98828,-37.94141 l 0.74023,-7.5 3.24415,10.5 c 1.7845,5.77499 4.72168,15.32728 6.52734,21.22656 3.66397,11.97062 6.17157,15.4388 10.39453,14.37891 1.39849,-0.351 3.27452,-1.7536 4.16797,-3.11719 1.77925,-2.71547 12.13181,-34.00371 13.90039,-41.94336 0.0308,0.84437 0.0717,1.76663 0.14648,2.97266 0.74064,11.94603 4.44364,36.65585 5.4668,39.28906 0.7715,1.9855 1.4873,2.26442 5.14063,2 3.97842,-0.28795 4.26623,-0.50887 4.55859,-3.53711 0.17158,-1.77726 -0.86978,-11.90227 -2.31445,-22.5 -1.44468,-10.59772 -2.96104,-22.29861 -3.36914,-26 -0.88766,-8.05097 -3.61451,-11.76953 -8.62891,-11.76953 -5.40386,0 -7.24901,3.22163 -12.93945,22.73047 -3.54035,12.13757 -6.26029,21.24995 -6.76953,24.42773 -1.02411,-5.69216 -8.8928,-31.37862 -11.99219,-39.6582 -1.86611,-4.98504 -5.10891,-7.64393 -8.42969,-7.57617 z" />
    <path d="m 437.96627,234.65297 c -4.93452,-2.30695 -7.98527,-4.93109 -10.9681,-9.43433 -2.63646,-3.98034 -3.0319,-5.47215 -3.0319,-11.43801 0,-3.77337 0.62263,-8.30872 1.38362,-10.07856 1.69643,-3.9454 8.12311,-10.22496 11.93148,-11.65834 4.16821,-1.56882 16.28537,-1.3175 19.62006,0.40693 4.15099,2.14656 10.92802,10.27356 11.58861,13.89703 0.31449,1.72508 0.4378,8.9865 0.27402,16.1365 l -0.29779,13 h -4.5 -4.5 l -0.5216,-14.5 c -0.28688,-7.975 -0.90392,-15.30414 -1.37118,-16.28699 -2.24234,-4.71648 -13.4572,-6.32136 -19.29585,-2.76129 -4.83018,2.94516 -6.65282,10.94315 -3.94939,17.3304 1.97966,4.67723 4.95671,6.88676 10.05293,7.46118 3.43556,0.38724 5.34562,0.006 8.09774,-1.61826 1.98092,-1.16877 4.02595,-2.12504 4.54451,-2.12504 0.51856,0 0.94284,2.01585 0.94284,4.47968 0,4.212 -0.23663,4.60039 -3.96016,6.5 -4.40986,2.24974 -12.00382,2.57599 -16.03984,0.6891 z"/>
    <path d="m 389.42061,234.7258 c -0.32739,-0.85317 -0.45105,-3.05656 -0.2748,-4.89641 l 0.32046,-3.3452 8.66773,-0.52056 c 9.50583,-0.57089 12.18327,-1.95309 13.13454,-6.78056 1.61119,-8.17643 -2.0326,-11.40977 -13.71674,-12.17165 l -8.08553,-0.52723 v -4 -4 l 7,-0.56547 c 8.3795,-0.67691 9.87862,-1.27534 11.36455,-4.53659 5.09381,-11.17971 -11.56898,-18.85046 -18.5658,-8.54681 -1.5652,2.30495 -1.86367,5.70006 -2.29875,26.14887 l -0.5,23.5 h -4 -4 l -0.26681,-25.07718 c -0.26281,-24.70127 -0.23243,-25.12848 2.02662,-28.5 1.26138,-1.88255 4.53145,-4.92787 7.26681,-6.76737 4.68583,-3.15118 5.38832,-3.32373 12.14999,-2.98428 6.2328,0.3129 7.67943,0.76496 11,3.43738 6.65464,5.35572 8.5602,9.03658 8.09801,15.64247 -0.31417,4.49013 -0.97391,6.35372 -3.00915,8.5 l -2.60676,2.74898 2.41812,1.79478 c 4.20458,3.12073 5.67325,7.27362 5.24605,14.83401 -0.34933,6.18226 -0.71224,7.16465 -3.85426,10.43336 -5.09413,5.29954 -8.15762,6.51518 -18.03061,7.15482 -7.46528,0.48366 -8.98372,0.32749 -9.48367,-0.97536 z"/>
    <path d="m 488.67999,253.36458 c -0.39255,-0.39255 -0.71372,-4.45217 -0.71372,-9.02138 0,-8.04705 -0.0863,-8.35283 -2.75,-9.74801 -1.5125,-0.7922 -4.325,-3.07782 -6.25,-5.07915 l -3.5,-3.63879 v -17.19653 -17.19653 h 4.5 4.5 l 0.27713,15.45124 c 0.32462,18.09878 0.73374,19.04876 8.20354,19.04876 3.57173,0 5.17572,-0.53756 6.81705,-2.28468 1.96768,-2.0945 2.16949,-3.53045 2.42431,-17.25 l 0.27797,-14.96532 h 4.5 4.5 l 0.29482,13.5 c 0.41591,19.04507 -2.02573,25.98051 -10.37458,29.46888 l -3.3404,1.39571 -0.28992,8.8177 -0.28992,8.81771 -4.03628,0.29705 c -2.21995,0.16338 -4.35745,-0.0241 -4.75,-0.41666 z"/>
    <path d="M 42.574329,268.46217 C 27.810163,264.40837 12.552191,252.01742 6.2105832,238.9313 -0.12300683,225.86172 -0.00467883,227.80435 8.5616742e-4,136.98419 0.00385617,87.975532 0.40685017,51.710768 0.99359317,47.652369 2.5640422,36.789856 7.6133452,27.144764 16.521997,17.990277 25.253341,9.0179903 32.301165,4.8397343 43.562278,1.9596273 50.954629,0.06898126 54.874446,-0.01507374 134.87623,0.00154526 c 68.84103,0.0143 84.78754,0.271112 90.3769,1.45548404 19.66809,4.167623 36.04786,19.1999377 42.22384,38.7503637 l 2.4893,7.880033 v 86.554044 c 0,95.2435 -1.8127,92.08446 -8.21143,104.76276 -4.04017,8.00508 -14.61893,20.7295 -23.10874,23.70215 -16.185,5.66707 -20.99715,5.81046 -33.37815,5.96721 -36.73428,0.46506 -154.858703,1.53982 -162.693621,-0.61142 z M 159.99707,239.15081 c 21.56675,-5.64936 35.77559,-13.76556 50.9692,-29.11401 11.87977,-12.00084 18.30083,-21.78829 23.66729,-36.07543 5.54704,-14.76787 6.84473,-22.46474 6.74014,-39.97718 C 241.2622,115.31506 238.88209,104.7444 231.16552,88.646972 220.67326,66.759242 203.94528,49.823997 182.63228,39.512373 125.95043,12.088649 58.937044,37.661236 35.957228,95.484182 29.606807,111.46343 27.030786,130.27386 28.969385,146.5103 c 5.77627,48.37829 39.831751,84.88472 87.636945,93.94413 10.81734,2.04996 33.14964,1.37902 43.39074,-1.30362 z"/>
  </g>
</svg>
