<svg width="24" height="24" viewBox="0 0 24 24" fill="none" xmlns="http://www.w3.org/2000/svg">
<path fill-rule="evenodd" clip-rule="evenodd" d="M7 5.5C5.34315 5.5 4 6.84315 4 8.5V15.5C4 17.1569 5.34315 18.5 7 18.5H17C18.6569 18.5 20 17.1569 20 15.5V8.5C20 6.84315 18.6569 5.5 17 5.5H7ZM7 7H17C17.6474 7 18.199 7.41017 18.4092 7.98482L13.7225 11.539C12.6686 12.1977 11.3314 12.1977 10.2775 11.539L5.59081 7.98482C5.80095 7.41017 6.35258 7 7 7ZM5.5 15.5C5.5 16.3284 6.17157 17 7 17H17C17.8284 17 18.5 16.3284 18.5 15.5V9.69694L14.5175 12.811C12.9772 13.7737 11.0228 13.7737 9.48251 12.811L5.5 9.69694V15.5Z" fill="#656E77"/>
<circle cx="18" cy="6" r="4" fill="#EB3A3A"/>
</svg>
