<svg width="15" height="20" viewBox="0 0 15 20" fill="none" xmlns="http://www.w3.org/2000/svg">
<path d="M0.0478556 10.6271C-0.0667437 9.63765 0.0287557 8.68241 0.288514 7.79948C1.15183 4.86527 3.86019 2.70742 7.07279 2.66936V0.751273C7.07279 0.644713 7.20649 0.587627 7.29435 0.652324L11.2557 3.55229C11.3206 3.60176 11.3206 3.70071 11.2557 3.74638L7.29817 6.64635C7.20649 6.71104 7.07661 6.65396 7.07661 6.5474V4.63312C4.96416 4.66737 3.16114 5.96512 2.38568 7.79948C2.09154 8.49212 1.94256 9.25708 1.98458 10.0601C2.04188 11.1637 2.45826 12.1799 3.1153 13.0019C3.46673 13.4396 3.38269 14.0789 2.92812 14.41C2.49646 14.7259 1.8929 14.6384 1.56057 14.2197C0.746911 13.2074 0.204475 11.9744 0.0478556 10.6271ZM11.8938 6.99785C12.5546 7.81608 12.971 8.83602 13.0245 9.93968C13.0665 10.7465 12.9137 11.5114 12.6234 12.2003C11.8479 14.0346 10.0449 15.3362 7.93246 15.3666V13.4524C7.93246 13.3458 7.79876 13.2887 7.7109 13.3534L3.74958 16.2534C3.68464 16.3029 3.68464 16.4018 3.74958 16.4475L7.70708 19.3474C7.79876 19.4121 7.92864 19.355 7.92864 19.2485V17.3304C11.1412 17.2961 13.8534 15.1383 14.7129 12.2003C14.9727 11.3174 15.0644 10.3621 14.9536 9.37263C14.8008 8.0254 14.2583 6.79234 13.4447 5.78002C13.1085 5.36139 12.5088 5.27385 12.0771 5.58973C11.6264 5.92083 11.5423 6.56019 11.8938 6.99785Z" fill="#BABABA"/>
</svg>
