<svg width="32" height="32" viewBox="0 0 32 32" fill="none" xmlns="http://www.w3.org/2000/svg">
<path d="M21.219 25.3273C21.0493 25.3273 20.9008 25.2828 20.7523 25.1938L15.9787 21.9466L11.2052 25.1938C10.9082 25.394 10.5263 25.3718 10.2505 25.1716C9.97469 24.9492 9.84739 24.5711 9.93226 24.2152L11.4386 18.6548L6.96205 14.6958C6.70746 14.4734 6.60138 14.0953 6.70746 13.7394C6.81354 13.4058 7.11056 13.1611 7.45001 13.1167L12.8176 12.7163L15.2362 7.17819C15.3847 6.86681 15.6817 6.66663 16 6.66663C16.3394 6.66663 16.6364 6.86681 16.7637 7.17819L19.1823 12.7163L24.5499 13.1167C24.8894 13.1389 25.1864 13.3836 25.2925 13.7394C25.3985 14.0731 25.2925 14.4512 25.0379 14.6958L20.5613 18.6548L22.0677 24.2152C22.1737 24.5711 22.0464 24.9492 21.7494 25.1716C21.5797 25.2605 21.41 25.3273 21.219 25.3273Z" fill="#7D62EC"/>
</svg>
