<svg width="18" height="18" viewBox="0 0 18 18" fill="none" xmlns="http://www.w3.org/2000/svg">
<path d="M15.5063 6.74061C15.5156 6.87186 15.5156 7.00313 15.5156 7.13437C15.5156 11.1375 12.4688 15.75 6.9 15.75C5.18437 15.75 3.59063 15.2531 2.25 14.3906C2.49376 14.4187 2.72811 14.4281 2.98125 14.4281C4.39685 14.4281 5.7 13.95 6.74062 13.1344C5.40937 13.1063 4.29374 12.2344 3.90936 11.0344C4.09688 11.0625 4.28436 11.0812 4.48126 11.0812C4.75312 11.0812 5.02502 11.0437 5.27813 10.9781C3.89063 10.6969 2.84998 9.47812 2.84998 8.00624V7.96876C3.25309 8.19376 3.72187 8.33438 4.21871 8.35311C3.40309 7.80935 2.86873 6.88124 2.86873 5.83123C2.86873 5.26874 3.01871 4.75311 3.28122 4.30311C4.77185 6.14061 7.01249 7.34059 9.52497 7.47186C9.4781 7.24686 9.44997 7.01251 9.44997 6.77813C9.44997 5.10936 10.8 3.75 12.4781 3.75C13.35 3.75 14.1375 4.11562 14.6906 4.70625C15.375 4.57501 16.0312 4.32187 16.6125 3.975C16.3874 4.67814 15.9093 5.26877 15.2812 5.64374C15.8906 5.57815 16.4812 5.40936 17.025 5.17501C16.6125 5.77499 16.0969 6.30934 15.5063 6.74061Z" fill="#717E84"/>
</svg>
