<svg width="24" height="24" viewBox="0 0 24 24" fill="none" xmlns="http://www.w3.org/2000/svg">
<path fill-rule="evenodd" clip-rule="evenodd" d="M12.0002 9.5C13.1548 9.5 14.0908 8.60457 14.0908 7.5C14.0908 6.39543 13.1548 5.5 12.0002 5.5C10.8456 5.5 9.90965 6.39543 9.90965 7.5C9.90965 8.60457 10.8456 9.5 12.0002 9.5ZM12.0002 11C14.0208 11 15.6588 9.433 15.6588 7.5C15.6588 5.567 14.0208 4 12.0002 4C9.97969 4 8.34171 5.567 8.34171 7.5C8.34171 9.433 9.97969 11 12.0002 11Z" fill="#656E77"/>
<path fill-rule="evenodd" clip-rule="evenodd" d="M12.0002 13.75C9.33102 13.75 6.96822 15.2284 6.5699 18.3432C6.56554 18.3773 6.57433 18.4062 6.60474 18.4364C6.63918 18.4707 6.69838 18.5 6.77378 18.5H17.2267C17.3021 18.5 17.3613 18.4707 17.3957 18.4364C17.4261 18.4062 17.4349 18.3773 17.4306 18.3432C17.0323 15.2284 14.6695 13.75 12.0002 13.75ZM5.01356 18.161C5.48314 14.4891 8.34897 12.25 12.0002 12.25C15.6515 12.25 18.5173 14.4891 18.9869 18.161C19.1221 19.2178 18.2074 20 17.2267 20H6.77378C5.79304 20 4.87842 19.2178 5.01356 18.161Z" fill="#656E77"/>
</svg>
