<svg width="28" height="20" viewBox="0 0 28 20" fill="none" xmlns="http://www.w3.org/2000/svg">
<path fill-rule="evenodd" clip-rule="evenodd" d="M24.5098 0.611765C25.6877 0.941176 26.6164 1.90588 26.9336 3.12941C27.5225 5.36471 27.4999 10.0235 27.4999 10.0235C27.4999 10.0235 27.4999 14.6588 26.9336 16.8941C26.6164 18.1176 25.6877 19.0824 24.5098 19.4118C22.3578 20 13.7499 20 13.7499 20C13.7499 20 5.16472 20 2.9901 19.3882C1.81218 19.0588 0.883439 18.0941 0.566307 16.8706C0 14.6588 0 10 0 10C0 10 0 5.36471 0.566307 3.12941C0.883439 1.90588 1.83484 0.917647 2.9901 0.588235C5.14207 0 13.7499 0 13.7499 0C13.7499 0 22.3578 0 24.5098 0.611765ZM18.75 10L11.25 13.75V6.25L18.75 10Z" fill="#FF0000"/>
</svg>
